<svg width="900" height="640" viewBox="0 0 900 640" xmlns="http://www.w3.org/2000/svg" role="img" aria-label="Reference photo style illustration of a mantis on a leaf">
  <rect width="900" height="640" fill="#eef3df"/>
  <path d="M-60 442c165-160 376-210 572-150 128 39 250 28 448-98v446H-60z" fill="#bdd182"/>
  <path d="M84 520c206-108 430-136 718-76" stroke="#2f6f3d" stroke-width="38" stroke-linecap="round"/>
  <g transform="translate(452 286) rotate(-13)">
    <ellipse cx="18" cy="58" rx="58" ry="144" fill="#5d8d3d" stroke="#172019" stroke-width="7"/>
    <ellipse cx="-48" cy="-72" rx="54" ry="60" fill="#7fa858" stroke="#172019" stroke-width="7"/>
    <path d="M-84-98c-70-42-120-77-154-134M-56-122c-42-78-48-132-30-198M72-8c78-68 140-105 232-112M50 32c90 18 144 56 194 124M-34 128c-56 42-86 82-108 156M54 132c58 42 90 82 112 156" stroke="#172019" stroke-width="18" stroke-linecap="round" fill="none"/>
    <path d="M-116-82c-52 4-94 22-126 56M-88-112c-40-46-68-88-84-146" stroke="#c8ff2e" stroke-width="12" stroke-linecap="round" fill="none"/>
    <circle cx="-68" cy="-86" r="10" fill="#101510"/>
    <circle cx="-28" cy="-92" r="10" fill="#101510"/>
  </g>
  <path d="M618 98h196" stroke="#b94f23" stroke-width="6"/>
  <path d="M664 128h150" stroke="#172019" stroke-width="4" opacity=".75"/>
</svg>
